<svg xmlns="http://www.w3.org/2000/svg" xmlns:xlink="http://www.w3.org/1999/xlink" width="800" zoomAndPan="magnify" viewBox="0 0 600 449.999984" height="600" preserveAspectRatio="xMidYMid meet" version="1.0"><defs><g/><clipPath id="8159852097"><path d="M 219.742188 45 L 380.242188 45 L 380.242188 246 L 219.742188 246 Z M 219.742188 45 " clip-rule="nonzero"/></clipPath><clipPath id="bc9c4eda3c"><path d="M 341.019531 67.234375 L 258.988281 67.234375 L 258.988281 45.066406 L 271.398438 45.066406 L 271.398438 54.800781 L 293.800781 54.800781 L 293.800781 45.074219 L 306.210938 45.074219 L 306.210938 54.800781 L 328.609375 54.800781 L 328.609375 45.066406 L 341.019531 45.066406 Z M 380.269531 79.664062 L 380.269531 167.375 C 380.269531 182.28125 376.257812 196.789062 368.671875 209.335938 C 361.242188 221.628906 350.734375 231.515625 338.285156 237.925781 C 336.265625 238.96875 334.210938 239.910156 332.21875 240.707031 C 328.359375 242.261719 324.320312 243.5 320.199219 244.382812 C 319.417969 244.546875 318.375 244.761719 317.226562 244.953125 C 313.335938 245.621094 309.277344 245.957031 305.167969 245.957031 L 294.816406 245.957031 C 290.722656 245.957031 286.675781 245.621094 282.785156 244.953125 C 281.742188 244.78125 280.765625 244.597656 279.789062 244.390625 C 275.730469 243.519531 271.695312 242.28125 267.835938 240.722656 C 265.726562 239.882812 263.671875 238.945312 261.730469 237.945312 C 249.285156 231.535156 238.773438 221.644531 231.339844 209.347656 C 223.75 196.792969 219.742188 182.277344 219.742188 167.375 L 219.742188 79.664062 Z M 367.859375 92.097656 L 232.148438 92.097656 L 232.148438 167.375 C 232.148438 193.519531 246.542969 216.144531 267.40625 226.886719 C 269.042969 227.734375 270.71875 228.492188 272.429688 229.175781 C 275.632812 230.46875 278.957031 231.5 282.382812 232.234375 C 283.203125 232.40625 284.007812 232.558594 284.839844 232.691406 C 288.09375 233.253906 291.429688 233.527344 294.816406 233.527344 L 305.167969 233.527344 C 308.578125 233.527344 311.917969 233.253906 315.167969 232.691406 C 316 232.554688 316.808594 232.394531 317.625 232.222656 C 321.050781 231.488281 324.378906 230.46875 327.578125 229.175781 C 329.292969 228.492188 330.964844 227.71875 332.605469 226.875 C 353.476562 216.121094 367.859375 193.519531 367.859375 167.375 Z M 272.429688 215.488281 L 272.429688 160.476562 L 244.558594 160.476562 L 244.558594 167.375 C 244.558594 187.625 255.480469 206.4375 272.429688 215.488281 Z M 294.816406 221.09375 L 305.167969 221.09375 C 308.515625 221.09375 311.832031 220.746094 314.996094 220.0625 L 315.03125 220.050781 L 315.070312 220.050781 C 315.105469 220.039062 315.132812 220.039062 315.167969 220.027344 L 315.167969 135.609375 L 284.839844 135.609375 L 284.839844 220.039062 C 284.890625 220.050781 284.941406 220.0625 284.988281 220.074219 C 288.179688 220.757812 291.492188 221.09375 294.816406 221.09375 Z M 355.449219 167.375 L 355.449219 116.960938 L 327.578125 116.960938 L 327.578125 215.472656 C 344.53125 206.4375 355.449219 187.640625 355.449219 167.375 Z M 355.449219 167.375 " clip-rule="nonzero"/></clipPath><linearGradient x1="-31.821231" gradientTransform="matrix(0.727231, 0, 0, 0.728559, 219.740313, 45.068138)" y1="229.559459" x2="246.651112" gradientUnits="userSpaceOnUse" y2="37.658241" id="c74c450bf0"><stop stop-opacity="1" stop-color="rgb(57.998657%, 42.399597%, 3.898621%)" offset="0"/><stop stop-opacity="1" stop-color="rgb(57.998657%, 42.399597%, 3.898621%)" offset="0.125"/><stop stop-opacity="1" stop-color="rgb(57.962036%, 42.373657%, 3.910828%)" offset="0.132813"/><stop stop-opacity="1" stop-color="rgb(57.733154%, 42.208862%, 3.985596%)" offset="0.140625"/><stop stop-opacity="1" stop-color="rgb(57.345581%, 41.932678%, 4.110718%)" offset="0.148438"/><stop stop-opacity="1" stop-color="rgb(56.958008%, 41.65802%, 4.237366%)" offset="0.15625"/><stop stop-opacity="1" stop-color="rgb(56.570435%, 41.381836%, 4.362488%)" offset="0.164063"/><stop stop-opacity="1" stop-color="rgb(56.182861%, 41.105652%, 4.48761%)" offset="0.171875"/><stop stop-opacity="1" stop-color="rgb(55.795288%, 40.830994%, 4.614258%)" offset="0.179688"/><stop stop-opacity="1" stop-color="rgb(55.407715%, 40.55481%, 4.73938%)" offset="0.1875"/><stop stop-opacity="1" stop-color="rgb(55.020142%, 40.278625%, 4.864502%)" offset="0.195313"/><stop stop-opacity="1" stop-color="rgb(54.632568%, 40.002441%, 4.989624%)" offset="0.203125"/><stop stop-opacity="1" stop-color="rgb(54.244995%, 39.727783%, 5.116272%)" offset="0.210938"/><stop stop-opacity="1" stop-color="rgb(53.857422%, 39.451599%, 5.241394%)" offset="0.21875"/><stop stop-opacity="1" stop-color="rgb(53.469849%, 39.175415%, 5.366516%)" offset="0.226563"/><stop stop-opacity="1" stop-color="rgb(53.082275%, 38.900757%, 5.493164%)" offset="0.234375"/><stop stop-opacity="1" stop-color="rgb(52.694702%, 38.624573%, 5.618286%)" offset="0.242188"/><stop stop-opacity="1" stop-color="rgb(52.307129%, 38.348389%, 5.743408%)" offset="0.25"/><stop stop-opacity="1" stop-color="rgb(51.919556%, 38.07373%, 5.870056%)" offset="0.257813"/><stop stop-opacity="1" stop-color="rgb(51.531982%, 37.797546%, 5.995178%)" offset="0.265625"/><stop stop-opacity="1" stop-color="rgb(51.144409%, 37.521362%, 6.1203%)" offset="0.273438"/><stop stop-opacity="1" stop-color="rgb(50.756836%, 37.245178%, 6.246948%)" offset="0.28125"/><stop stop-opacity="1" stop-color="rgb(50.369263%, 36.97052%, 6.37207%)" offset="0.289063"/><stop stop-opacity="1" stop-color="rgb(49.981689%, 36.694336%, 6.497192%)" offset="0.296875"/><stop stop-opacity="1" stop-color="rgb(49.594116%, 36.418152%, 6.62384%)" offset="0.304688"/><stop stop-opacity="1" stop-color="rgb(49.206543%, 36.143494%, 6.748962%)" offset="0.3125"/><stop stop-opacity="1" stop-color="rgb(48.820496%, 35.86731%, 6.874084%)" offset="0.320313"/><stop stop-opacity="1" stop-color="rgb(48.432922%, 35.591125%, 7.000732%)" offset="0.328125"/><stop stop-opacity="1" stop-color="rgb(48.045349%, 35.316467%, 7.125854%)" offset="0.335938"/><stop stop-opacity="1" stop-color="rgb(47.657776%, 35.040283%, 7.250977%)" offset="0.34375"/><stop stop-opacity="1" stop-color="rgb(47.270203%, 34.764099%, 7.377625%)" offset="0.351563"/><stop stop-opacity="1" stop-color="rgb(46.882629%, 34.487915%, 7.502747%)" offset="0.359375"/><stop stop-opacity="1" stop-color="rgb(46.495056%, 34.213257%, 7.627869%)" offset="0.367188"/><stop stop-opacity="1" stop-color="rgb(46.107483%, 33.937073%, 7.754517%)" offset="0.375"/><stop stop-opacity="1" stop-color="rgb(45.71991%, 33.660889%, 7.879639%)" offset="0.382813"/><stop stop-opacity="1" stop-color="rgb(45.332336%, 33.38623%, 8.004761%)" offset="0.390625"/><stop stop-opacity="1" stop-color="rgb(44.944763%, 33.110046%, 8.131409%)" offset="0.398438"/><stop stop-opacity="1" stop-color="rgb(44.55719%, 32.833862%, 8.256531%)" offset="0.40625"/><stop stop-opacity="1" stop-color="rgb(44.169617%, 32.557678%, 8.381653%)" offset="0.414063"/><stop stop-opacity="1" stop-color="rgb(43.782043%, 32.28302%, 8.508301%)" offset="0.421875"/><stop stop-opacity="1" stop-color="rgb(43.39447%, 32.006836%, 8.633423%)" offset="0.429688"/><stop stop-opacity="1" stop-color="rgb(43.006897%, 31.730652%, 8.758545%)" offset="0.4375"/><stop stop-opacity="1" stop-color="rgb(42.619324%, 31.455994%, 8.885193%)" offset="0.445313"/><stop stop-opacity="1" stop-color="rgb(42.23175%, 31.17981%, 9.010315%)" offset="0.453125"/><stop stop-opacity="1" stop-color="rgb(41.844177%, 30.903625%, 9.135437%)" offset="0.460938"/><stop stop-opacity="1" stop-color="rgb(41.456604%, 30.628967%, 9.262085%)" offset="0.462645"/><stop stop-opacity="1" stop-color="rgb(41.262817%, 30.491638%, 9.324646%)" offset="0.46875"/><stop stop-opacity="1" stop-color="rgb(41.069031%, 30.352783%, 9.387207%)" offset="0.476563"/><stop stop-opacity="1" stop-color="rgb(40.681458%, 30.076599%, 9.512329%)" offset="0.484375"/><stop stop-opacity="1" stop-color="rgb(40.293884%, 29.800415%, 9.638977%)" offset="0.492188"/><stop stop-opacity="1" stop-color="rgb(39.906311%, 29.525757%, 9.764099%)" offset="0.5"/><stop stop-opacity="1" stop-color="rgb(39.518738%, 29.249573%, 9.889221%)" offset="0.507813"/><stop stop-opacity="1" stop-color="rgb(39.131165%, 28.973389%, 10.015869%)" offset="0.515625"/><stop stop-opacity="1" stop-color="rgb(38.743591%, 28.69873%, 10.140991%)" offset="0.523438"/><stop stop-opacity="1" stop-color="rgb(38.357544%, 28.422546%, 10.266113%)" offset="0.53125"/><stop stop-opacity="1" stop-color="rgb(37.969971%, 28.146362%, 10.392761%)" offset="0.537355"/><stop stop-opacity="1" stop-color="rgb(37.776184%, 28.009033%, 10.455322%)" offset="0.539062"/><stop stop-opacity="1" stop-color="rgb(37.582397%, 27.870178%, 10.517883%)" offset="0.546875"/><stop stop-opacity="1" stop-color="rgb(37.194824%, 27.59552%, 10.643005%)" offset="0.554688"/><stop stop-opacity="1" stop-color="rgb(36.807251%, 27.319336%, 10.769653%)" offset="0.5625"/><stop stop-opacity="1" stop-color="rgb(36.419678%, 27.043152%, 10.894775%)" offset="0.570313"/><stop stop-opacity="1" stop-color="rgb(36.032104%, 26.768494%, 11.019897%)" offset="0.578125"/><stop stop-opacity="1" stop-color="rgb(35.644531%, 26.49231%, 11.146545%)" offset="0.585938"/><stop stop-opacity="1" stop-color="rgb(35.256958%, 26.216125%, 11.271667%)" offset="0.59375"/><stop stop-opacity="1" stop-color="rgb(34.869385%, 25.941467%, 11.39679%)" offset="0.601563"/><stop stop-opacity="1" stop-color="rgb(34.481812%, 25.665283%, 11.523438%)" offset="0.609375"/><stop stop-opacity="1" stop-color="rgb(34.094238%, 25.389099%, 11.64856%)" offset="0.617188"/><stop stop-opacity="1" stop-color="rgb(33.706665%, 25.112915%, 11.773682%)" offset="0.625"/><stop stop-opacity="1" stop-color="rgb(33.319092%, 24.838257%, 11.90033%)" offset="0.632813"/><stop stop-opacity="1" stop-color="rgb(32.931519%, 24.562073%, 12.025452%)" offset="0.640625"/><stop stop-opacity="1" stop-color="rgb(32.543945%, 24.285889%, 12.150574%)" offset="0.648438"/><stop stop-opacity="1" stop-color="rgb(32.156372%, 24.01123%, 12.277222%)" offset="0.65625"/><stop stop-opacity="1" stop-color="rgb(31.768799%, 23.735046%, 12.402344%)" offset="0.664063"/><stop stop-opacity="1" stop-color="rgb(31.381226%, 23.458862%, 12.527466%)" offset="0.671875"/><stop stop-opacity="1" stop-color="rgb(30.993652%, 23.182678%, 12.654114%)" offset="0.679688"/><stop stop-opacity="1" stop-color="rgb(30.606079%, 22.90802%, 12.779236%)" offset="0.6875"/><stop stop-opacity="1" stop-color="rgb(30.218506%, 22.631836%, 12.904358%)" offset="0.695313"/><stop stop-opacity="1" stop-color="rgb(29.830933%, 22.355652%, 13.031006%)" offset="0.703125"/><stop stop-opacity="1" stop-color="rgb(29.443359%, 22.080994%, 13.156128%)" offset="0.710938"/><stop stop-opacity="1" stop-color="rgb(29.055786%, 21.80481%, 13.28125%)" offset="0.71875"/><stop stop-opacity="1" stop-color="rgb(28.668213%, 21.528625%, 13.407898%)" offset="0.726563"/><stop stop-opacity="1" stop-color="rgb(28.28064%, 21.253967%, 13.53302%)" offset="0.734375"/><stop stop-opacity="1" stop-color="rgb(27.893066%, 20.977783%, 13.658142%)" offset="0.742188"/><stop stop-opacity="1" stop-color="rgb(27.507019%, 20.701599%, 13.78479%)" offset="0.75"/><stop stop-opacity="1" stop-color="rgb(27.119446%, 20.425415%, 13.909912%)" offset="0.757813"/><stop stop-opacity="1" stop-color="rgb(26.731873%, 20.150757%, 14.035034%)" offset="0.765625"/><stop stop-opacity="1" stop-color="rgb(26.344299%, 19.874573%, 14.161682%)" offset="0.773438"/><stop stop-opacity="1" stop-color="rgb(25.956726%, 19.598389%, 14.286804%)" offset="0.78125"/><stop stop-opacity="1" stop-color="rgb(25.569153%, 19.32373%, 14.411926%)" offset="0.789062"/><stop stop-opacity="1" stop-color="rgb(25.18158%, 19.047546%, 14.537048%)" offset="0.796875"/><stop stop-opacity="1" stop-color="rgb(24.794006%, 18.771362%, 14.663696%)" offset="0.804688"/><stop stop-opacity="1" stop-color="rgb(24.406433%, 18.495178%, 14.788818%)" offset="0.8125"/><stop stop-opacity="1" stop-color="rgb(24.01886%, 18.22052%, 14.91394%)" offset="0.820312"/><stop stop-opacity="1" stop-color="rgb(23.631287%, 17.944336%, 15.040588%)" offset="0.828125"/><stop stop-opacity="1" stop-color="rgb(23.243713%, 17.668152%, 15.16571%)" offset="0.835938"/><stop stop-opacity="1" stop-color="rgb(22.85614%, 17.393494%, 15.290833%)" offset="0.84375"/><stop stop-opacity="1" stop-color="rgb(22.468567%, 17.11731%, 15.41748%)" offset="0.851563"/><stop stop-opacity="1" stop-color="rgb(22.080994%, 16.841125%, 15.542603%)" offset="0.859375"/><stop stop-opacity="1" stop-color="rgb(21.742249%, 16.601562%, 15.652466%)" offset="0.875"/><stop stop-opacity="1" stop-color="rgb(21.598816%, 16.499329%, 15.699768%)" offset="1"/></linearGradient></defs><g clip-path="url(#8159852097)"><g clip-path="url(#bc9c4eda3c)"><path fill="url(#c74c450bf0)" d="M 219.742188 45.066406 L 219.742188 245.957031 L 380.242188 245.957031 L 380.242188 45.066406 Z M 219.742188 45.066406 " fill-rule="nonzero"/></g></g><g fill="#372a28" fill-opacity="1"><g transform="translate(154.774199, 288.946039)"><g><path d="M 14.21875 -31.140625 C 18.226562 -31.140625 21.835938 -30.078125 25.046875 -27.953125 L 22.875 -23.359375 C 19.726562 -25.273438 16.710938 -26.234375 13.828125 -26.234375 C 12.265625 -26.234375 11.035156 -25.953125 10.140625 -25.390625 C 9.242188 -24.835938 8.796875 -24.046875 8.796875 -23.015625 C 8.796875 -21.984375 9.207031 -21.101562 10.03125 -20.375 C 10.851562 -19.65625 11.878906 -19.125 13.109375 -18.78125 C 14.347656 -18.445312 15.6875 -18.019531 17.125 -17.5 C 18.570312 -16.988281 19.914062 -16.445312 21.15625 -15.875 C 22.394531 -15.300781 23.414062 -14.40625 24.21875 -13.1875 C 25.03125 -11.96875 25.4375 -10.488281 25.4375 -8.75 C 25.4375 -6.039062 24.351562 -3.875 22.1875 -2.25 C 20.03125 -0.632812 17.226562 0.171875 13.78125 0.171875 C 11.425781 0.171875 9.144531 -0.265625 6.9375 -1.140625 C 4.726562 -2.023438 2.800781 -3.21875 1.15625 -4.71875 L 3.40625 -9.234375 C 4.96875 -7.785156 6.679688 -6.671875 8.546875 -5.890625 C 10.421875 -5.109375 12.195312 -4.71875 13.875 -4.71875 C 15.695312 -4.71875 17.113281 -5.050781 18.125 -5.71875 C 19.144531 -6.382812 19.65625 -7.304688 19.65625 -8.484375 C 19.65625 -9.546875 19.242188 -10.4375 18.421875 -11.15625 C 17.597656 -11.875 16.566406 -12.398438 15.328125 -12.734375 C 14.085938 -13.078125 12.742188 -13.488281 11.296875 -13.96875 C 9.859375 -14.457031 8.519531 -14.972656 7.28125 -15.515625 C 6.050781 -16.066406 5.019531 -16.945312 4.1875 -18.15625 C 3.363281 -19.363281 2.953125 -20.820312 2.953125 -22.53125 C 2.953125 -25.144531 3.984375 -27.234375 6.046875 -28.796875 C 8.109375 -30.359375 10.832031 -31.140625 14.21875 -31.140625 Z M 14.21875 -31.140625 "/></g></g></g><g fill="#372a28" fill-opacity="1"><g transform="translate(187.065892, 288.946039)"><g><path d="M 26.15625 -26.234375 L 9.28125 -26.234375 L 9.28125 -17.890625 L 24.390625 -17.890625 L 24.390625 -13.203125 L 9.28125 -13.203125 L 9.28125 -4.6875 L 26.6875 -4.6875 L 26.6875 0 L 4.0625 0 L 4.0625 -30.921875 L 26.15625 -30.921875 Z M 26.15625 -26.234375 "/></g></g></g><g fill="#372a28" fill-opacity="1"><g transform="translate(220.859479, 288.946039)"><g><path d="M 17.75 -31.046875 C 19.9375 -31.046875 22.066406 -30.625 24.140625 -29.78125 C 26.210938 -28.945312 28 -27.78125 29.5 -26.28125 L 26.453125 -22.484375 C 25.335938 -23.691406 24.015625 -24.648438 22.484375 -25.359375 C 20.953125 -26.066406 19.40625 -26.421875 17.84375 -26.421875 C 14.75 -26.421875 12.132812 -25.363281 10 -23.25 C 7.863281 -21.144531 6.796875 -18.578125 6.796875 -15.546875 C 6.796875 -12.484375 7.863281 -9.898438 10 -7.796875 C 12.132812 -5.691406 14.75 -4.640625 17.84375 -4.640625 C 21.050781 -4.640625 23.921875 -5.859375 26.453125 -8.296875 L 29.546875 -4.859375 C 27.960938 -3.296875 26.109375 -2.054688 23.984375 -1.140625 C 21.867188 -0.234375 19.734375 0.21875 17.578125 0.21875 C 13.046875 0.21875 9.234375 -1.285156 6.140625 -4.296875 C 3.046875 -7.316406 1.5 -11.050781 1.5 -15.5 C 1.5 -19.882812 3.066406 -23.570312 6.203125 -26.5625 C 9.335938 -29.550781 13.1875 -31.046875 17.75 -31.046875 Z M 17.75 -31.046875 "/></g></g></g><g fill="#372a28" fill-opacity="1"><g transform="translate(256.464186, 288.946039)"><g><path d="M 30.34375 -30.921875 L 30.34375 -12.8125 C 30.34375 -8.78125 29.148438 -5.597656 26.765625 -3.265625 C 24.378906 -0.941406 21.09375 0.21875 16.90625 0.21875 C 12.726562 0.21875 9.441406 -0.941406 7.046875 -3.265625 C 4.648438 -5.597656 3.453125 -8.78125 3.453125 -12.8125 L 3.453125 -30.921875 L 8.65625 -30.921875 L 8.65625 -12.8125 C 8.65625 -10.21875 9.398438 -8.175781 10.890625 -6.6875 C 12.378906 -5.207031 14.40625 -4.46875 16.96875 -4.46875 C 19.5 -4.46875 21.492188 -5.203125 22.953125 -6.671875 C 24.410156 -8.140625 25.140625 -10.1875 25.140625 -12.8125 L 25.140625 -30.921875 Z M 30.34375 -30.921875 "/></g></g></g><g fill="#372a28" fill-opacity="1"><g transform="translate(295.028509, 288.946039)"><g><path d="M 23.671875 0 L 18.015625 -9.359375 C 17.722656 -9.328125 17.253906 -9.3125 16.609375 -9.3125 L 9.28125 -9.3125 L 9.28125 0 L 4.0625 0 L 4.0625 -30.921875 L 16.609375 -30.921875 C 20.554688 -30.921875 23.617188 -30 25.796875 -28.15625 C 27.972656 -26.320312 29.0625 -23.722656 29.0625 -20.359375 C 29.0625 -17.890625 28.507812 -15.800781 27.40625 -14.09375 C 26.300781 -12.382812 24.71875 -11.132812 22.65625 -10.34375 L 29.59375 0 Z M 9.28125 -14 L 16.609375 -14 C 21.617188 -14 24.125 -16.078125 24.125 -20.234375 C 24.125 -24.234375 21.617188 -26.234375 16.609375 -26.234375 L 9.28125 -26.234375 Z M 9.28125 -14 "/></g></g></g><g fill="#372a28" fill-opacity="1"><g transform="translate(331.781742, 288.946039)"><g><path d="M 9.28125 0 L 4.0625 0 L 4.0625 -30.921875 L 9.28125 -30.921875 Z M 9.28125 0 "/></g></g></g><g fill="#372a28" fill-opacity="1"><g transform="translate(349.937893, 288.946039)"><g><path d="M 25.171875 -26.234375 L 15.375 -26.234375 L 15.375 0 L 10.15625 0 L 10.15625 -26.234375 L 0.390625 -26.234375 L 0.390625 -30.921875 L 25.171875 -30.921875 Z M 25.171875 -26.234375 "/></g></g></g><g fill="#372a28" fill-opacity="1"><g transform="translate(380.330115, 288.946039)"><g><path d="M 24.03125 -6.984375 L 8.4375 -6.984375 L 5.484375 0 L 0.046875 0 L 13.6875 -30.921875 L 19.03125 -30.921875 L 32.546875 0 L 26.984375 0 Z M 22.046875 -11.609375 L 16.21875 -25.359375 L 10.375 -11.609375 Z M 22.046875 -11.609375 "/></g></g></g><g fill="#372a28" fill-opacity="1"><g transform="translate(417.745933, 288.946039)"><g><path d="M 14.21875 -31.140625 C 18.226562 -31.140625 21.835938 -30.078125 25.046875 -27.953125 L 22.875 -23.359375 C 19.726562 -25.273438 16.710938 -26.234375 13.828125 -26.234375 C 12.265625 -26.234375 11.035156 -25.953125 10.140625 -25.390625 C 9.242188 -24.835938 8.796875 -24.046875 8.796875 -23.015625 C 8.796875 -21.984375 9.207031 -21.101562 10.03125 -20.375 C 10.851562 -19.65625 11.878906 -19.125 13.109375 -18.78125 C 14.347656 -18.445312 15.6875 -18.019531 17.125 -17.5 C 18.570312 -16.988281 19.914062 -16.445312 21.15625 -15.875 C 22.394531 -15.300781 23.414062 -14.40625 24.21875 -13.1875 C 25.03125 -11.96875 25.4375 -10.488281 25.4375 -8.75 C 25.4375 -6.039062 24.351562 -3.875 22.1875 -2.25 C 20.03125 -0.632812 17.226562 0.171875 13.78125 0.171875 C 11.425781 0.171875 9.144531 -0.265625 6.9375 -1.140625 C 4.726562 -2.023438 2.800781 -3.21875 1.15625 -4.71875 L 3.40625 -9.234375 C 4.96875 -7.785156 6.679688 -6.671875 8.546875 -5.890625 C 10.421875 -5.109375 12.195312 -4.71875 13.875 -4.71875 C 15.695312 -4.71875 17.113281 -5.050781 18.125 -5.71875 C 19.144531 -6.382812 19.65625 -7.304688 19.65625 -8.484375 C 19.65625 -9.546875 19.242188 -10.4375 18.421875 -11.15625 C 17.597656 -11.875 16.566406 -12.398438 15.328125 -12.734375 C 14.085938 -13.078125 12.742188 -13.488281 11.296875 -13.96875 C 9.859375 -14.457031 8.519531 -14.972656 7.28125 -15.515625 C 6.050781 -16.066406 5.019531 -16.945312 4.1875 -18.15625 C 3.363281 -19.363281 2.953125 -20.820312 2.953125 -22.53125 C 2.953125 -25.144531 3.984375 -27.234375 6.046875 -28.796875 C 8.109375 -30.359375 10.832031 -31.140625 14.21875 -31.140625 Z M 14.21875 -31.140625 "/></g></g></g><g fill="#372a28" fill-opacity="1"><g transform="translate(194.168024, 331.359269)"><g><path d="M 19.8125 -20.984375 L 7.421875 -20.984375 L 7.421875 -13.84375 L 18.65625 -13.84375 L 18.65625 -10.140625 L 7.421875 -10.140625 L 7.421875 0 L 3.25 0 L 3.25 -24.734375 L 19.859375 -24.734375 Z M 19.8125 -20.984375 "/></g></g></g><g fill="#372a28" fill-opacity="1"><g transform="translate(216.780443, 331.359269)"><g><path d="M 7.421875 0 L 3.25 0 L 3.25 -24.734375 L 7.421875 -24.734375 Z M 7.421875 0 "/></g></g></g><g fill="#372a28" fill-opacity="1"><g transform="translate(229.747638, 331.359269)"><g><path d="M 24.6875 0 L 20.59375 0 L 7.421875 -17.734375 L 7.421875 0 L 3.25 0 L 3.25 -24.734375 L 7.34375 -24.734375 L 20.59375 -6.953125 L 20.59375 -24.734375 L 24.6875 -24.734375 Z M 24.6875 0 "/></g></g></g><g fill="#372a28" fill-opacity="1"><g transform="translate(260.026782, 331.359269)"><g><path d="M 19.21875 -5.578125 L 6.75 -5.578125 L 4.375 0 L 0.03125 0 L 10.953125 -24.734375 L 15.21875 -24.734375 L 26.03125 0 L 21.578125 0 Z M 17.625 -9.296875 L 12.96875 -20.28125 L 8.296875 -9.296875 Z M 17.625 -9.296875 "/></g></g></g><g fill="#372a28" fill-opacity="1"><g transform="translate(288.398077, 331.359269)"><g><path d="M 24.6875 0 L 20.59375 0 L 7.421875 -17.734375 L 7.421875 0 L 3.25 0 L 3.25 -24.734375 L 7.34375 -24.734375 L 20.59375 -6.953125 L 20.59375 -24.734375 L 24.6875 -24.734375 Z M 24.6875 0 "/></g></g></g><g fill="#372a28" fill-opacity="1"><g transform="translate(318.677225, 331.359269)"><g><path d="M 14.203125 -24.828125 C 15.941406 -24.828125 17.640625 -24.492188 19.296875 -23.828125 C 20.960938 -23.160156 22.394531 -22.222656 23.59375 -21.015625 L 21.15625 -17.984375 C 20.257812 -18.953125 19.195312 -19.71875 17.96875 -20.28125 C 16.75 -20.84375 15.515625 -21.125 14.265625 -21.125 C 11.796875 -21.125 9.707031 -20.28125 8 -18.59375 C 6.289062 -16.914062 5.4375 -14.863281 5.4375 -12.4375 C 5.4375 -9.988281 6.289062 -7.921875 8 -6.234375 C 9.707031 -4.546875 11.796875 -3.703125 14.265625 -3.703125 C 16.835938 -3.703125 19.132812 -4.679688 21.15625 -6.640625 L 23.640625 -3.890625 C 22.367188 -2.640625 20.882812 -1.648438 19.1875 -0.921875 C 17.488281 -0.191406 15.78125 0.171875 14.0625 0.171875 C 10.4375 0.171875 7.382812 -1.03125 4.90625 -3.4375 C 2.4375 -5.851562 1.203125 -8.84375 1.203125 -12.40625 C 1.203125 -15.914062 2.453125 -18.863281 4.953125 -21.25 C 7.460938 -23.632812 10.546875 -24.828125 14.203125 -24.828125 Z M 14.203125 -24.828125 "/></g></g></g><g fill="#372a28" fill-opacity="1"><g transform="translate(345.599959, 331.359269)"><g><path d="M 7.421875 0 L 3.25 0 L 3.25 -24.734375 L 7.421875 -24.734375 Z M 7.421875 0 "/></g></g></g><g fill="#372a28" fill-opacity="1"><g transform="translate(358.567156, 331.359269)"><g><path d="M 19.21875 -5.578125 L 6.75 -5.578125 L 4.375 0 L 0.03125 0 L 10.953125 -24.734375 L 15.21875 -24.734375 L 26.03125 0 L 21.578125 0 Z M 17.625 -9.296875 L 12.96875 -20.28125 L 8.296875 -9.296875 Z M 17.625 -9.296875 "/></g></g></g><g fill="#372a28" fill-opacity="1"><g transform="translate(386.938441, 331.359269)"><g><path d="M 7.421875 -3.78125 L 18.125 -3.78125 L 18.125 0 L 3.25 0 L 3.25 -24.734375 L 7.421875 -24.734375 Z M 7.421875 -3.78125 "/></g></g></g></svg>